<?xml version="1.0" encoding="utf-8"?>
<!-- Generator: Adobe Illustrator 24.1.1, SVG Export Plug-In . SVG Version: 6.00 Build 0)  -->
<svg version="1.1" id="レイヤー_1" xmlns="http://www.w3.org/2000/svg" xmlns:xlink="http://www.w3.org/1999/xlink" x="0px"
	 y="0px" viewBox="0 0 150 50" style="enable-background:new 0 0 150 50;" xml:space="preserve">
<style type="text/css">
	.st0{fill:none;}
	.st1{fill:#D64D2B;}
	.st2{fill:url(#SVGID_1_);}
	.st3{clip-path:url(#SVGID_3_);}
	.st4{opacity:0.66;}
	.st5{filter:url(#Adobe_OpacityMaskFilter);}
	.st6{mask:url(#SVGID_4_);}
	.st7{opacity:0.74;fill:url(#SVGID_5_);}
	.st8{opacity:0.61;}
	.st9{filter:url(#Adobe_OpacityMaskFilter_1_);}
	.st10{mask:url(#SVGID_6_);}
	.st11{opacity:0.74;fill:url(#SVGID_7_);}
	.st12{opacity:0.73;}
	.st13{fill:url(#SVGID_8_);}
	.st14{clip-path:url(#SVGID_10_);}
	.st15{opacity:0.42;}
	.st16{filter:url(#Adobe_OpacityMaskFilter_2_);}
	.st17{mask:url(#SVGID_11_);}
	.st18{opacity:0.74;fill:url(#SVGID_12_);}
	.st19{filter:url(#Adobe_OpacityMaskFilter_3_);}
	.st20{mask:url(#SVGID_13_);}
	.st21{opacity:0.74;fill:url(#SVGID_14_);}
	.st22{fill:#FFFFFF;}
</style>
<pattern  width="212" height="157" patternUnits="userSpaceOnUse" id="新規パターンスウォッチ_11" viewBox="1 -158 212 157" style="overflow:visible;">
	<g>
		<rect x="1" y="-158" class="st0" width="212" height="157"/>
		<image style="overflow:visible;" width="212" height="157" xlink:href="36D83DFC.png"  transform="matrix(1 0 0 1 1 -158)">
		</image>
	</g>
</pattern>
<pattern  width="218" height="162" patternUnits="userSpaceOnUse" id="新規パターンスウォッチ_91" viewBox="1 -163 218 162" style="overflow:visible;">
	<g>
		<rect x="1" y="-163" class="st0" width="218" height="162"/>
		<image style="overflow:visible;" width="218" height="162" xlink:href="36D83DFD.png"  transform="matrix(1 0 0 1 1 -163)">
		</image>
	</g>
</pattern>
<g>
	<g>
		<g>
			<g>
				<g>
					<path class="st1" d="M38.8,14.8c-0.2-0.4-1.4-1-2-1.1c0.7-0.6,1.7-0.8,1.7-0.8s0.4-0.3,0-0.3c-0.6,0-1.4,0.5-1.8,0.9
						c0-0.6,0.1-1.9-0.1-2.2c-0.3,0.1-0.8,1.2-0.9,1.5c-0.2-0.7-1.5-1.6-1.8-1.8c0,0.6,0.3,2,0.3,2c-0.4-0.4-3.3-0.1-3.3-0.1
						s1.6,1.3,2.5,1.6c-0.8,0.4-2.2,2.7-2.2,2.7s2.3-0.6,3-1c0,0.7,0.3,2.2,0.6,2.6c0.5-0.6,1.1-2.2,1.1-2.7
						c0.3,0.9,1.8,1.8,1.8,1.8s-0.3-2.1-0.8-2.7C37.6,15.2,38.8,14.8,38.8,14.8z M35.9,14.1c-0.1,0.7-0.7,2.7-0.7,2.7
						C35.2,16.4,35.8,14.3,35.9,14.1c-0.3,0.2-1.4,0.8-2.5,1.5C34.2,14.9,35.5,14.3,35.9,14.1c-0.4-0.1-2.4-0.5-2.8-0.6
						C33.2,13.5,35.2,13.9,35.9,14.1c-0.3-0.4-1.1-1.7-1.2-1.9C34.9,12.4,35.8,13.8,35.9,14.1c0.1-0.8,0.5-1.7,0.5-1.7
						S36,13.9,35.9,14.1c0.2,0,1.7,0.4,1.7,0.4S36.7,14.4,35.9,14.1c0.2,0.2,0.9,1.7,1,1.9C36.8,15.9,36.1,14.5,35.9,14.1z"/>
					<g>
						
							<pattern  id="SVGID_1_" xlink:href="#譁ｰ隕上ヱ繧ｿ繝ｼ繝ｳ繧ｹ繧ｦ繧ｩ繝メ_91" patternTransform="matrix(0.4842 0 0 0.4842 -4411.0151 -4403.5352)">
						</pattern>
						<path class="st2" d="M38.8,14.8c-0.2-0.4-1.4-1-2-1.1c0.7-0.6,1.7-0.8,1.7-0.8s0.4-0.3,0-0.3c-0.6,0-1.4,0.5-1.8,0.9
							c0-0.6,0.1-1.9-0.1-2.2c-0.3,0.1-0.8,1.2-0.9,1.5c-0.2-0.7-1.5-1.6-1.8-1.8c0,0.6,0.3,2,0.3,2c-0.4-0.4-3.3-0.1-3.3-0.1
							s1.6,1.3,2.5,1.6c-0.8,0.4-2.2,2.7-2.2,2.7s2.3-0.6,3-1c0,0.7,0.3,2.2,0.6,2.6c0.5-0.6,1.1-2.2,1.1-2.7
							c0.3,0.9,1.8,1.8,1.8,1.8s-0.3-2.1-0.8-2.7C37.6,15.2,38.8,14.8,38.8,14.8z M35.9,14.1c-0.1,0.7-0.7,2.7-0.7,2.7
							C35.2,16.4,35.8,14.3,35.9,14.1c-0.3,0.2-1.4,0.8-2.5,1.5C34.2,14.9,35.5,14.3,35.9,14.1c-0.4-0.1-2.4-0.5-2.8-0.6
							C33.2,13.5,35.2,13.9,35.9,14.1c-0.3-0.4-1.1-1.7-1.2-1.9C34.9,12.4,35.8,13.8,35.9,14.1c0.1-0.8,0.5-1.7,0.5-1.7
							S36,13.9,35.9,14.1c0.2,0,1.7,0.4,1.7,0.4S36.7,14.4,35.9,14.1c0.2,0.2,0.9,1.7,1,1.9C36.8,15.9,36.1,14.5,35.9,14.1z"/>
					</g>
				</g>
			</g>
			<g>
				<defs>
					<path id="SVGID_2_" d="M38.8,14.8c-0.2-0.4-1.4-1-2-1.1c0.7-0.6,1.7-0.8,1.7-0.8s0.4-0.3,0-0.3c-0.6,0-1.4,0.5-1.8,0.9
						c0-0.6,0.1-1.9-0.1-2.2c-0.3,0.1-0.8,1.2-0.9,1.5c-0.2-0.7-1.5-1.6-1.8-1.8c0,0.6,0.3,2,0.3,2c-0.4-0.4-3.3-0.1-3.3-0.1
						s1.6,1.3,2.5,1.6c-0.8,0.4-2.2,2.7-2.2,2.7s2.3-0.6,3-1c0,0.7,0.3,2.2,0.6,2.6c0.5-0.6,1.1-2.2,1.1-2.7
						c0.3,0.9,1.8,1.8,1.8,1.8s-0.3-2.1-0.8-2.7C37.6,15.2,38.8,14.8,38.8,14.8z M35.9,14.1c-0.1,0.7-0.7,2.7-0.7,2.7
						C35.2,16.4,35.8,14.3,35.9,14.1c-0.3,0.2-1.4,0.8-2.5,1.5C34.2,14.9,35.5,14.3,35.9,14.1c-0.4-0.1-2.4-0.5-2.8-0.6
						C33.2,13.5,35.2,13.9,35.9,14.1c-0.3-0.4-1.1-1.7-1.2-1.9C34.9,12.4,35.8,13.8,35.9,14.1c0.1-0.8,0.5-1.7,0.5-1.7
						S36,13.9,35.9,14.1c0.2,0,1.7,0.4,1.7,0.4S36.7,14.4,35.9,14.1c0.2,0.2,0.9,1.7,1,1.9C36.8,15.9,36.1,14.5,35.9,14.1z"/>
				</defs>
				<use xlink:href="#SVGID_2_"  style="overflow:visible;fill:#D64D2B;"/>
				<clipPath id="SVGID_3_">
					<use xlink:href="#SVGID_2_"  style="overflow:visible;"/>
				</clipPath>
				<g class="st3">
					<g class="st4">
						<defs>
							<filter id="Adobe_OpacityMaskFilter" filterUnits="userSpaceOnUse" x="33.8" y="11.3" width="5.2" height="5.2">
								<feFlood  style="flood-color:white;flood-opacity:1" result="back"/>
								<feBlend  in="SourceGraphic" in2="back" mode="normal"/>
							</filter>
						</defs>
						<mask maskUnits="userSpaceOnUse" x="33.8" y="11.3" width="5.2" height="5.2" id="SVGID_4_">
							<g class="st5">
								<image style="overflow:visible;" width="10" height="10" xlink:href="36D83DFC.jpg"  transform="matrix(1 0 0 1 31 9)">
								</image>
							</g>
						</mask>
						<g class="st6">
							<circle class="st1" cx="36.4" cy="13.9" r="2.6"/>
							
								<pattern  id="SVGID_5_" xlink:href="#譁ｰ隕上ヱ繧ｿ繝ｼ繝ｳ繧ｹ繧ｦ繧ｩ繝メ_91" patternTransform="matrix(-0.7352 -0.3511 -0.3511 0.7352 -17101.4629 -5007.7373)">
							</pattern>
							<circle class="st7" cx="36.4" cy="13.9" r="2.6"/>
						</g>
					</g>
					<g class="st8">
						<defs>
							<filter id="Adobe_OpacityMaskFilter_1_" filterUnits="userSpaceOnUse" x="35.4" y="11.7" width="3.5" height="3.5">
								<feFlood  style="flood-color:white;flood-opacity:1" result="back"/>
								<feBlend  in="SourceGraphic" in2="back" mode="normal"/>
							</filter>
						</defs>
						<mask maskUnits="userSpaceOnUse" x="35.4" y="11.7" width="3.5" height="3.5" id="SVGID_6_">
							<g class="st9">
								<image style="overflow:visible;" width="8" height="9" xlink:href="36D83E04.jpg"  transform="matrix(1 0 0 1 33 9)">
								</image>
							</g>
						</mask>
						<g class="st10">
							<path class="st1" d="M38.9,13.4c0,1-0.8,1.7-1.7,1.7c-1,0-1.7-0.8-1.7-1.7s0.8-1.7,1.7-1.7C38.1,11.7,38.9,12.4,38.9,13.4z"
								/>
							
								<pattern  id="SVGID_7_" xlink:href="#譁ｰ隕上ヱ繧ｿ繝ｼ繝ｳ繧ｹ繧ｦ繧ｩ繝メ_91" patternTransform="matrix(-0.4936 -0.2358 -0.2358 0.4936 -14141.1729 -5926.0654)">
							</pattern>
							<path class="st11" d="M38.9,13.4c0,1-0.8,1.7-1.7,1.7c-1,0-1.7-0.8-1.7-1.7s0.8-1.7,1.7-1.7C38.1,11.7,38.9,12.4,38.9,13.4z"
								/>
						</g>
					</g>
				</g>
			</g>
		</g>
		<g>
			<g>
				<g>
					<path class="st1" d="M31.5,22.1c-1.4-1.3-7-2.4-7-2.4s2,4.2,4.5,5c-1.3-0.1-5.5,1.3-7.1,2.5c1.2,0.7,5.1,1.7,6.9,1.7
						c-1.2,1.8-2.9,7.8-2.9,7.8s6.2-3.4,7.3-5.3c0.5,2.4,3.8,6.8,3.8,6.8s0.9-7.4-0.1-8.5c0,0,3.8,1.2,5.2,1.1c-0.4-1-2.6-4.5-4.5-5
						c0.7,0,3.6-1.3,4-2.1c-0.8-0.4-4.3-0.4-5.8-0.4c0.9-1.1,2.3-2.9,2.5-4.6c-0.1-1-0.8,0-0.8,0s-0.6,2.8-2.3,4.4
						c-0.2-1.5-1.6-4.7-2.6-5.3C32.6,17.7,31.5,20.9,31.5,22.1z M29.1,22.5c0.5,0.2,4.4,2.2,5.1,2.7c-0.6-1.9-1-4.3-1-4.3
						s1.1,3.9,1.2,4.3c0.4-0.1,4.3-1,4.3-1s-2.3,0.8-4.3,1.1c0.7,0.3,4.1,2.9,4.5,3.3c-0.5-0.3-3.8-2.6-4.6-3.1
						c0.5,1.8,1.2,7.1,1.2,7.1c-0.3-0.8-1.2-6.3-1.3-7c-0.5,0.9-2.4,4.1-4.4,6.3c2-3,3.7-5.6,4.3-6.4c-0.5,0.1-6.2,1.5-7.1,1.5
						c0,0,5.2-1.3,7.1-1.6C33.3,24.9,29.6,22.9,29.1,22.5z"/>
					<g class="st12">
						
							<pattern  id="SVGID_8_" xlink:href="#譁ｰ隕上ヱ繧ｿ繝ｼ繝ｳ繧ｹ繧ｦ繧ｩ繝メ_11" patternTransform="matrix(3.3089 9.958135e-04 1.003684e-03 3.309 19282.2539 19027.1348)"  class="st12">
						</pattern>
						<path class="st13" d="M31.5,22.1c-1.4-1.3-7-2.4-7-2.4s2,4.2,4.5,5c-1.3-0.1-5.5,1.3-7.1,2.5c1.2,0.7,5.1,1.7,6.9,1.7
							c-1.2,1.8-2.9,7.8-2.9,7.8s6.2-3.4,7.3-5.3c0.5,2.4,3.8,6.8,3.8,6.8s0.9-7.4-0.1-8.5c0,0,3.8,1.2,5.2,1.1
							c-0.4-1-2.6-4.5-4.5-5c0.7,0,3.6-1.3,4-2.1c-0.8-0.4-4.3-0.4-5.8-0.4c0.9-1.1,2.3-2.9,2.5-4.6c-0.1-1-0.8,0-0.8,0
							s-0.6,2.8-2.3,4.4c-0.2-1.5-1.6-4.7-2.6-5.3C32.6,17.7,31.5,20.9,31.5,22.1z M29.1,22.5c0.5,0.2,4.4,2.2,5.1,2.7
							c-0.6-1.9-1-4.3-1-4.3s1.1,3.9,1.2,4.3c0.4-0.1,4.3-1,4.3-1s-2.3,0.8-4.3,1.1c0.7,0.3,4.1,2.9,4.5,3.3
							c-0.5-0.3-3.8-2.6-4.6-3.1c0.5,1.8,1.2,7.1,1.2,7.1c-0.3-0.8-1.2-6.3-1.3-7c-0.5,0.9-2.4,4.1-4.4,6.3c2-3,3.7-5.6,4.3-6.4
							c-0.5,0.1-6.2,1.5-7.1,1.5c0,0,5.2-1.3,7.1-1.6C33.3,24.9,29.6,22.9,29.1,22.5z"/>
					</g>
				</g>
			</g>
			<g>
				<defs>
					<path id="SVGID_9_" d="M31.5,22.1c-1.4-1.3-7-2.4-7-2.4s2,4.2,4.5,5c-1.3-0.1-5.5,1.3-7.1,2.5c1.2,0.7,5.1,1.7,6.9,1.7
						c-1.2,1.8-2.9,7.8-2.9,7.8s6.2-3.4,7.3-5.3c0.5,2.4,3.8,6.8,3.8,6.8s0.9-7.4-0.1-8.5c0,0,3.8,1.2,5.2,1.1c-0.4-1-2.6-4.5-4.5-5
						c0.7,0,3.6-1.3,4-2.1c-0.8-0.4-4.3-0.4-5.8-0.4c0.9-1.1,2.3-2.9,2.5-4.6c-0.1-1-0.8,0-0.8,0s-0.6,2.8-2.3,4.4
						c-0.2-1.5-1.6-4.7-2.6-5.3C32.6,17.7,31.5,20.9,31.5,22.1z M29.1,22.5c0.5,0.2,4.4,2.2,5.1,2.7c-0.6-1.9-1-4.3-1-4.3
						s1.1,3.9,1.2,4.3c0.4-0.1,4.3-1,4.3-1s-2.3,0.8-4.3,1.1c0.7,0.3,4.1,2.9,4.5,3.3c-0.5-0.3-3.8-2.6-4.6-3.1
						c0.5,1.8,1.2,7.1,1.2,7.1c-0.3-0.8-1.2-6.3-1.3-7c-0.5,0.9-2.4,4.1-4.4,6.3c2-3,3.7-5.6,4.3-6.4c-0.5,0.1-6.2,1.5-7.1,1.5
						c0,0,5.2-1.3,7.1-1.6C33.3,24.9,29.6,22.9,29.1,22.5z"/>
				</defs>
				<use xlink:href="#SVGID_9_"  style="overflow:visible;fill:#D64D2B;"/>
				<clipPath id="SVGID_10_">
					<use xlink:href="#SVGID_9_"  style="overflow:visible;"/>
				</clipPath>
				<g class="st14">
					<g class="st15">
						<defs>
							<filter id="Adobe_OpacityMaskFilter_2_" filterUnits="userSpaceOnUse" x="29" y="16.8" width="13.2" height="13.2">
								<feFlood  style="flood-color:white;flood-opacity:1" result="back"/>
								<feBlend  in="SourceGraphic" in2="back" mode="normal"/>
							</filter>
						</defs>
						<mask maskUnits="userSpaceOnUse" x="29" y="16.8" width="13.2" height="13.2" id="SVGID_11_">
							<g class="st16">
								<image style="overflow:visible;" width="18" height="19" xlink:href="36D83E07.jpg"  transform="matrix(1 0 0 1 27 14)">
								</image>
							</g>
						</mask>
						<g class="st17">
							
								<ellipse transform="matrix(6.852002e-02 -0.9976 0.9976 6.852002e-02 9.8234 57.3905)" class="st1" cx="35.6" cy="23.4" rx="6.6" ry="6.6"/>
							
								<pattern  id="SVGID_12_" xlink:href="#譁ｰ隕上ヱ繧ｿ繝ｼ繝ｳ繧ｹ繧ｦ繧ｩ繝メ_91" patternTransform="matrix(4.113800e-02 -2.0855 -2.0855 -4.113800e-02 -25574.2012 -26720.6777)">
							</pattern>
							<circle class="st18" cx="35.6" cy="23.4" r="6.6"/>
						</g>
					</g>
					<g class="st15">
						<defs>
							<filter id="Adobe_OpacityMaskFilter_3_" filterUnits="userSpaceOnUse" x="31.8" y="14.2" width="13.2" height="13.2">
								<feFlood  style="flood-color:white;flood-opacity:1" result="back"/>
								<feBlend  in="SourceGraphic" in2="back" mode="normal"/>
							</filter>
						</defs>
						<mask maskUnits="userSpaceOnUse" x="31.8" y="14.2" width="13.2" height="13.2" id="SVGID_13_">
							<g class="st19">
								<image style="overflow:visible;" width="19" height="18" xlink:href="36D83E05.jpg"  transform="matrix(1 0 0 1 29 12)">
								</image>
							</g>
						</mask>
						<g class="st20">
							
								<ellipse transform="matrix(0.2375 -0.9714 0.9714 0.2375 9.1435 53.1833)" class="st1" cx="38.4" cy="20.8" rx="6.6" ry="6.6"/>
							
								<pattern  id="SVGID_14_" xlink:href="#譁ｰ隕上ヱ繧ｿ繝ｼ繝ｳ繧ｹ繧ｦ繧ｩ繝メ_91" patternTransform="matrix(4.113800e-02 -2.0855 -2.0855 -4.113800e-02 -25564.4473 -26729.959)">
							</pattern>
							<circle class="st21" cx="38.4" cy="20.8" r="6.6"/>
						</g>
					</g>
				</g>
			</g>
		</g>
	</g>
	<g>
		<path class="st22" d="M50.9,33.4c0.3-0.9,0.5-1.7,0.6-2.6c-0.1-0.2-0.4-0.7-0.4-0.7l1.1-0.6l0.6,1.1l-0.1,0.2
			c-0.2,1.1-0.4,2-0.7,2.9L52,33.9l-1.2-0.3L50.9,33.4z M54.8,26.6c0.7-0.3,1.4-0.6,2-0.9c0,0,0-0.1,0-0.1c-0.2-0.1-0.7-0.6-0.7-0.6
			l0.8-0.9l0.9,0.7l0.1,0.1c0.4,0.7,0.7,1.4,0.9,2l0.1,0.2l-1.1,0.5l-0.1-0.3c-0.1-0.2-0.2-0.5-0.3-0.7c-1.3,0.6-2.6,1.2-4.1,1.8
			l-0.4,0.2l-0.9-1.5l1-0.5c0,0,0.1,0.2,0.3,0.5c0.5-0.8,1-1.6,1.6-2.6c-0.6-0.6-1.1-1-1.7-1.5c-0.2-0.1-1.4-0.5-1.4-0.5l0.4-1.2
			l0.6,0.2c0.9-1.7,1.7-3.1,2.4-4.7c-0.5-0.4-1.5-1-1.5-1l0.7-1l2.4,1.6l-0.2,0.5c-0.9,1.8-1.7,3.2-2.6,5c0.6,0.4,1.1,0.9,1.6,1.4
			c0.8-1.4,1.6-2.8,2.4-4.3c-0.4-0.3-1-0.7-1-0.7l0.7-1l1.8,1.3l-0.4,0.8C57.5,22,56,24.6,54.8,26.6z M54.6,32
			c-0.2-0.7-0.3-1.2-0.5-1.9c-0.1-0.2-0.6-0.8-0.6-0.8l0.9-0.8l0.8,0.9l0,0.1c0.3,0.8,0.4,1.4,0.6,2.1l0.1,0.3l-1.2,0.3L54.6,32z
			 M57.1,30.9c-0.3-0.7-0.8-1.7-1.2-2.6l1.1-0.6c0.5,0.9,0.9,1.9,1.2,2.7L57.1,30.9z M72.2,27.1l-2.6-0.5c-0.8-0.2-1.1-0.2-1.9,0
			c-1.2,0.3-2.1,0.4-3,0.6c-1.2,0.2-2.3,0.4-4,0.8l-0.3,0.1l-1.2-1.1l0.8-0.9c0,0,0.5,0.4,0.7,0.7c0.9-0.2,1.6-0.3,2.3-0.5
			c1.1-1.2,2.2-2.7,3.2-4.3c-0.4-0.3-1-0.7-1-0.7l0.5-0.7c-1,0.2-1.9,0.4-2.8,0.6l-0.4,0.1L61.3,20l1-0.9c0,0,0.4,0.4,0.7,0.7
			c2.3-0.5,4.8-1,7.3-1.5l0.2,1.3c-1.4,0.3-2.8,0.5-4.1,0.8l1.6,1.2l-0.3,0.5c-0.8,1.4-1.7,2.7-2.6,3.8c0.7-0.1,1.5-0.3,2.5-0.5
			c1-0.2,1.4-0.2,2.4,0l2.6,0.5L72.2,27.1z"/>
		<path class="st22" d="M93.7,21.2c0,0,2.2,0.3,2.2,0.3l-0.2,1.1l-2.2-0.3c-0.7-0.1-1.1-0.1-1.9,0.1l-0.3,0.1
			c-0.5,0.1-1.1,0.2-1.7,0.3l-0.4,1.5c0.1,0,0.2,0,0.3-0.1l0.2,0.9c-1.4,0.3-2.4,0.4-3,0.6v0.6l-1.2,0c0,0,0-1.4,0.1-2.8
			c-0.7,0.1-1.4,0.3-2.1,0.4l0,1.3c0,0.4,0,1,0.4,1.3c0.3,0.3,0.7,0.4,1.2,0.4c0.7,0,3-0.4,4.4-0.6l0.2,1.2
			c-0.7,0.1-1.3,0.2-1.9,0.3l-0.1,1c1-0.2,2-0.3,3.2-0.5l0.2,1.1c-1.2,0.2-2.3,0.3-3.4,0.5l-0.1,2.4c-0.1,1.2-0.2,2-0.5,3.5
			l-1.2-0.3c0.1-0.6,0.2-1.1,0.3-1.5l-1.8-0.6l0.2-0.9l1.8,0.4c0-0.2,0-0.4,0.1-0.7c0,0,0-1.1,0.1-2.2c-1.1,0.2-2.1,0.4-3.2,0.6
			l-0.4,0.1l-1.1-1.4l0.9-0.7c0,0,0.4,0.5,0.7,0.8c1-0.2,2-0.4,3.1-0.6c0-0.4,0-0.8,0-1c-0.6,0.1-1.1,0.1-1.4,0.1
			c-0.9,0-1.6-0.3-2.1-0.8c-0.5-0.5-0.7-1.3-0.7-2.2v0c0,0,0-0.5,0-1c-0.7,0.1-1.3,0.2-1.9,0.4l-4,0.7L75.1,24l0.8-0.9
			c0,0,0.7,0.6,1,0.8c0.5-0.1,3.5-0.7,3.5-0.7c0.7-0.1,1.4-0.3,2.1-0.4c0-0.5,0-0.9,0-1.1c-0.4-0.2-0.9-0.4-0.9-0.4l0.5-1.1l1.6,0.7
			l0,1.7c0.7-0.1,1.4-0.3,2.1-0.4c0-0.7,0.1-1.3,0.1-1.5c-0.2-0.1-0.4-0.2-0.5-0.3l-0.8,0.1c0,0-0.1-0.7-0.3-1.6
			c-1.1,0.3-2.3,0.5-3.2,0.8l-0.3,0.1l-1.5-1.2l0.7-0.9c0,0,0.7,0.6,1.1,0.9c0.9-0.3,2-0.5,3-0.7c-0.2-1.2-0.4-2.3-0.4-2.7
			c-0.6-0.1-2-0.5-2-0.5l0.3-1.2l2.8,0.6l0.5,3.4l0.5-0.1l0.3,1.1l-0.6,0.2l0.1,0.6l0-0.1L87,20c0.3-0.6,0.6-1.3,0.8-1.9
			c-0.2,0.1-0.3,0.1-0.5,0.1L87,17.1c0.4-0.1,0.8-0.2,1.1-0.3c0.2-0.8,0.4-1.6,0.5-2.4c-0.4-0.3-0.9-0.6-0.9-0.6l0.7-1l1.6,1
			l-0.1,0.4c-0.1,0.8-0.3,1.6-0.5,2.3c1.1-0.2,2.2-0.5,3.5-0.7l0.2,1.1c-1.5,0.3-2.8,0.5-4,0.8c-0.3,1-0.6,1.9-1.1,2.9l-1-0.5l0,1.8
			c0.6-0.1,1.3-0.2,1.9-0.3c0.2-0.7,0.4-1.3,0.4-1.5c-0.3-0.2-0.7-0.5-0.7-0.5l0.7-0.9l1.3,1l-0.5,1.8c0.4-0.1,0.8-0.1,1.1-0.2
			l0.3-0.1C92.3,21.1,92.8,21,93.7,21.2z M81.9,30.5l0.4,1.4l0,0.2c-0.2,0.8-0.4,1.7-0.7,2.5l-1.2-0.4c0.3-0.7,0.5-1.5,0.6-2.2
			c-0.1-0.3-0.3-1.1-0.3-1.1L81.9,30.5z M88.1,24.5c0,0,0.2-0.7,0.4-1.5c-0.5,0.1-1.1,0.2-1.6,0.3l0,1.5
			C87.2,24.6,87.6,24.5,88.1,24.5L88.1,24.5z M91.9,30.6c0.6,0.7,1,1.2,1.4,1.8l-1,0.8c-0.4-0.5-0.8-1-1.3-1.6
			c-0.2-0.1-1.4-0.6-1.4-0.6l0.5-1.2l1.7,0.7L91.9,30.6z"/>
		<path class="st22" d="M106.8,28.9c0.3-0.3,0.5-0.6,0.7-0.9c-0.4-0.3-0.8-0.5-1.2-0.7h0c-0.2,0-0.9-0.1-0.9-0.1l0-0.5
			c-0.6,0.5-1.2,0.9-1.9,1.4l-0.7-1c1.5-1,2.5-1.8,3.7-3.3c-0.3-0.3-0.7-0.7-0.7-0.7l0.9-0.8l1.4,1.4l-0.1,0.1l1.8-0.6l0.2-0.1
			l1.7,1l-0.5,0.9c0,0-0.3-0.2-0.6-0.3c-0.7,1.9-1.7,3.5-2.9,4.9c-1.4,1.6-3.3,3-5.6,4.1l-0.5-1.1C103.8,31.6,105.5,30.4,106.8,28.9
			z M105.3,20.2c0.9-0.2,2.1-0.5,3.1-0.7c-0.2-1.3-0.4-2.9-0.5-3.2c-0.4-0.2-1.6-0.7-1.6-0.7l0.6-1.2l2.2,1l0.6,3.9
			c0.4-0.1,0.7-0.1,1-0.2l0.2,1.2c-0.3,0-0.7,0.1-1,0.2l0.2,1l-1.3,0.2c0,0-0.1-0.4-0.2-0.9c-1.2,0.2-2.4,0.5-3.4,0.7l-0.3,0.1
			l-1.3-1.3l0.9-0.9C104.5,19.3,105,19.9,105.3,20.2z M108.2,27c0.5-0.8,0.9-1.6,1.2-2.5c-0.6,0.2-1.3,0.5-1.3,0.5l-1.3,0.5
			c-0.2,0.2-0.4,0.4-0.6,0.6l0.4,0h0.2l0.3,0.2C107.3,26.5,107.7,26.7,108.2,27z M120.6,31.8l0.3,1.2c-2.5,0.6-5,1.2-7,1.2
			c-0.8,0-1.8-0.1-2.5-0.8c-0.4-0.4-0.5-0.9-0.5-1.6c0-0.1,0-0.2,0-0.3c0.1-1.4,0.3-3.1,0.4-4c-0.4-0.2-0.9-0.4-0.9-0.4l0.5-1.1
			l1.8,0.7l-0.1,0.5c0,0-0.3,2.5-0.4,4.4c-0.1,0.5,0,0.8,0.2,1c0.3,0.3,0.8,0.4,1.6,0.4c1.1,0,2.5-0.2,3.9-0.5l-0.2-2.4l1.2-0.1
			l0.2,2.3C119.5,32,120.1,31.9,120.6,31.8z M111.6,23.1l0.8-0.8c0,0,0.3,0.3,0.6,0.6c1-0.5,2-0.9,2.7-1.2l0.3-0.1l2,1.1l-0.6,1
			c0,0-0.3-0.2-0.6-0.3c-0.1,0.6-0.2,1.2-0.3,1.8c-0.2,1.2-0.4,1.5-1,3l-1.1-0.5c0.2-0.5,0.3-0.8,0.4-1.1l-1.4-0.5l0.4-1.1l1.4,0.5
			c0-0.2,0.1-0.4,0.1-0.6c0.1-0.7,0.2-1.3,0.3-2c-0.8,0.3-1.6,0.7-2.5,1.1l-0.4,0.2L111.6,23.1z M111.7,21.1
			c0.2-0.4,0.4-0.8,0.6-1.2l-0.2-1c0.2-0.1,0.5-0.1,0.7-0.2c0.3-0.9,0.7-1.8,1-2.7c-0.4-0.4-1.5-1.3-1.5-1.3l0.8-1l2.2,1.9l-0.2,0.4
			c-0.3,0.8-0.6,1.6-0.9,2.4c1.1-0.2,2.2-0.4,3.3-0.6l0.2,1.2c-1.4,0.2-2.7,0.5-4,0.7c-0.3,0.7-0.5,1.3-0.8,1.9L111.7,21.1z"/>
	</g>
</g>
</svg>
